<svg id="Capa_1" data-name="Capa 1" xmlns="http://www.w3.org/2000/svg" viewBox="0 0 502.3 723.68"><defs><style>.cls-1,.cls-3{fill:#1c274c;}.cls-1{fill-rule:evenodd;}.cls-2{opacity:0.5;}</style></defs><path class="cls-1" d="M515.23,418.58l0-213.84c0-30.8,0-46.2-5.74-60S492.83,120,471.05,98.25l-10.4-10.38c-33.5-33.44-50.24-50.15-71-50.12s-37.54,16.81-71,50.35l-10.4,10.42c-21.77,21.81-32.66,32.72-38.39,46.57s-5.73,29.26-5.73,60l0,213.85c0,36,0,58.3,6.47,73.39a38.32,38.32,0,0,0,8.26,12.34c14.71,14.69,38.39,14.65,85.75,14.57h6.36l-.68-75.23a19.43,19.43,0,1,1,38.85-.29l.68,75.46h5c47.35-.08,71-.12,85.74-14.85a38.26,38.26,0,0,0,7.76-11.24C515.24,478,515.24,455.48,515.23,418.58ZM439.87,242.91a50.23,50.23,0,1,1-50.23-50.15A50.32,50.32,0,0,1,439.87,242.91Z" transform="translate(-138.52 -37.75)"/><path class="cls-1" d="M204.47,649.46a22.89,22.89,0,0,1,22.87,22.86V679a10.27,10.27,0,0,0,20.53-.07L247.8,606a22.86,22.86,0,1,1,45.71,0l.08,72.86a56,56,0,0,1-111.95,0V672.3A22.8,22.8,0,0,1,204.47,649.46Zm186-6.59A22.89,22.89,0,0,1,413.12,666l-.69,72.86a22.85,22.85,0,1,1-45.7-.5l.69-72.86A22.81,22.81,0,0,1,390.49,642.87Zm119.26-58.82a22.91,22.91,0,0,1,22.88,22.87l.07,72.86a10.27,10.27,0,0,0,20.53-.07v-6.63a22.86,22.86,0,1,1,45.71,0v6.62a56,56,0,1,1-112,0l-.07-72.86A22.81,22.81,0,0,1,509.75,584.05Z" transform="translate(-138.52 -37.75)"/><g class="cls-2"><path class="cls-3" d="M225.22,327v93c0,17.1,0,32.78.91,46.06a156.73,156.73,0,0,0,3.72,26.35h-4.34a125.63,125.63,0,0,0-46.44,9.67c-.79.32-1.58.67-3.16,1.35l-9.68,4.19a19.83,19.83,0,0,1-27.72-18.19c0-41,0-90.17,6.92-107a87.38,87.38,0,0,1,28.48-36.92C185.4,337.05,200,332.72,225.22,327Z" transform="translate(-138.52 -37.75)"/><path class="cls-3" d="M549.53,492a155.79,155.79,0,0,1,17.88.88,126,126,0,0,1,20,4.09c7.37,2.15,14.48,5.2,28.7,11.31,11.58,5,24.71-3.79,24.71-16.5v-3.07c0-41,0-90.17-7-107a87.08,87.08,0,0,0-28.5-36.82c-11.48-8.5-26.08-12.78-51.29-18.39v93.33c0,17.48,0,33.51-1,47A155.05,155.05,0,0,1,549.53,492Z" transform="translate(-138.52 -37.75)"/></g><g class="cls-2"><path class="cls-3" d="M353.28,589.18a22.86,22.86,0,1,0-45.71,0l.15,91.23a22.86,22.86,0,1,0,45.71,0Z" transform="translate(-138.52 -37.75)"/><path class="cls-3" d="M472.82,589.1a22.86,22.86,0,0,0-45.71,0l.15,90.6a22.86,22.86,0,1,0,45.71,0Z" transform="translate(-138.52 -37.75)"/></g></svg>